<?xml version="1.0" encoding="UTF-8"?>
<svg id="Layer_1" data-name="Layer 1" xmlns="http://www.w3.org/2000/svg" viewBox="0 0 111.99 115.69">
  <defs>
    <style>
      .cls-1, .cls-2 {
        fill: #fff;
      }

      .cls-1, .cls-2, .cls-3, .cls-4 {
        stroke: #fff;
        stroke-miterlimit: 10;
      }

      .cls-1, .cls-4 {
        stroke-width: 13px;
      }

      .cls-2 {
        stroke-linecap: round;
      }

      .cls-3 {
        stroke-width: 11px;
      }

      .cls-3, .cls-4 {
        fill: none;
      }
    </style>
  </defs>
  <line class="cls-4" x1="57.84" y1="40.31" x2="57.84" y2="38.26"/>
  <line class="cls-4" x1="88.34" y1="38.52" x2="84.61" y2="38.49"/>
  <line class="cls-4" x1="57.84" y1="38.26" x2="51.32" y2="38.2"/>
  <line class="cls-4" x1="102.8" y1="3.57" x2="101.27" y2="6.51"/>
  <polygon class="cls-4" points="101.27 6.51 84.61 38.49 57.84 38.26 57.81 6.52 91 6.52 101.27 6.51"/>
  <line class="cls-4" x1="80.95" y1="6.52" x2="64.99" y2="6.53"/>
  <polygon class="cls-4" points="68.62 60.96 72.85 61.13 73.15 61.15 62.14 98.16 61.4 97.94 71.45 63.97 68.62 60.96"/>
  <polygon class="cls-1" points="49.77 98.6 48.55 98.98 29.88 39.42 29.5 38.2 31.2 38.21 49.77 98.6"/>
  <polygon class="cls-2" points="69.14 95.59 66.08 105.95 55.99 115.04 44.72 106.81 41.45 96.34 69.14 95.59"/>
  <polygon class="cls-3" points="20.08 6.63 18.58 5.56 61.3 5.56 61.3 7.45 21.74 7.69 20.08 6.63"/>
</svg>